<svg xmlns="http://www.w3.org/2000/svg" width="1200" height="900" viewBox="0 0 1200 900">
  <g id="farg">
    <path d="M 0 0 L 1200 0 L 1200 900 L 0 900 Z" fill="#cfe6f7"/> <!-- Himmel -->
    <path d="M 100 120 A 50 50 0 1 0 200 120 A 50 50 0 1 0 100 120 Z" fill="#f8d66d"/> <!-- Sol -->
    <path d="M 450 120 C 430 120 415 105 415 85 C 415 65 435 50 460 50 C 475 30 505 20 535 25 C 565 30 580 45 590 60 C 610 55 640 65 650 85 C 660 105 645 125 625 130 C 620 145 595 155 565 150 C 535 150 515 140 505 130 C 490 140 465 135 450 120 Z" fill="#f4f8fc"/> <!-- Moln 1 -->
    <path d="M 880 140 C 860 140 840 125 840 105 C 840 85 860 70 885 70 C 895 50 925 35 955 40 C 985 45 1000 65 1005 80 C 1025 75 1055 85 1065 105 C 1075 125 1065 145 1045 150 C 1045 160 1020 175 990 170 C 960 170 940 165 930 155 C 915 165 890 160 880 140 Z" fill="#f4f8fc"/> <!-- Moln 2 -->
    <path d="M 0 460 Q 300 420 600 450 Q 900 420 1200 450 L 1200 900 L 0 900 Z" fill="#91c47c"/> <!-- Bortre kulle -->
    <path d="M 1065 440 L 1068 375 L 1098 375 L 1102 440 Z" fill="#a8845c"/> <!-- Trädstam -->
    <path d="M 1029 340 A 56 56 0 1 0 1141 340 A 56 56 0 1 0 1029 340 Z" fill="#7cb86e"/> <!-- Trädkrona (Gömställe) -->
    <path d="M 0 580 Q 350 560 700 580 Q 950 560 1200 580 L 1200 900 L 0 900 Z" fill="#a9d494"/> <!-- Främre äng -->
    <path d="M 0 770 Q 400 740 800 760 Q 1000 750 1200 765 L 1200 900 L 0 900 Z" fill="#e8d8b0"/> <!-- Åkermark nederst -->
    <path d="M 265 430 L 275 430 Q 350 430 350 505 L 350 625 Q 350 700 275 700 L 265 700 Q 190 700 190 625 L 190 505 Q 190 430 265 430 Z" fill="#5c5f68"/> <!-- Vänster bakhjul däck -->
    <path d="M 270 475 L 275 475 Q 320 475 320 520 L 320 610 Q 320 655 275 655 L 270 655 Q 225 655 225 610 L 225 520 Q 225 475 270 475 Z" fill="#f2d06b"/> <!-- Vänster bakhjul fälg -->
    <path d="M 340 210 L 610 200 L 640 240 L 320 250 Z" fill="#ccd1d6"/> <!-- Hytt-tak -->
    <path d="M 468 172 L 502 172 Q 510 172 510 180 L 510 196 Q 510 204 502 204 L 468 204 Q 460 204 460 196 L 460 180 Q 460 172 468 172 Z" fill="#f8d66d"/> <!-- Varningsljus -->
    <path d="M 425 250 L 625 240 L 635 385 L 420 395 Z" fill="#cfe8f6"/> <!-- Framruta -->
    <path d="M 330 255 L 415 252 L 410 395 L 320 390 Z" fill="#cfe8f6"/> <!-- Hytt sidoruta -->
    <path d="M 320 395 L 420 395 L 415 540 L 310 520 Z" fill="#e2655a"/> <!-- Hytt sidoplåt -->
    <path d="M 405 370 L 405 200 L 390 195 L 390 155 L 420 155 L 420 195 L 415 200 L 415 370 Z" fill="#a3a9b0"/> <!-- Avgasrör -->
    <path d="M 425 395 L 635 385 L 830 460 L 650 475 Z" fill="#e2655a"/> <!-- Motorhuv ovansida -->
    <path d="M 420 395 L 650 475 L 635 585 L 415 540 Z" fill="#c4524a"/> <!-- Motorhuv sida -->
    <path d="M 650 475 L 830 460 C 860 465 870 485 870 520 L 865 645 C 865 675 840 685 810 685 L 645 680 C 620 680 615 660 615 635 L 635 585 Z" fill="#6f747c"/> <!-- Frontkylare -->
    <path d="M 644 505 A 26 26 0 1 0 696 505 A 26 26 0 1 0 644 505 Z" fill="#f8d66d"/> <!-- Vänster strålkastare -->
    <path d="M 789 495 A 26 26 0 1 0 841 495 A 26 26 0 1 0 789 495 Z" fill="#f8d66d"/> <!-- Höger strålkastare -->
    <path d="M 630 680 L 840 680 Q 850 680 850 690 L 850 735 Q 850 745 840 745 L 630 745 Q 620 745 620 735 L 620 690 Q 620 680 630 680 Z" fill="#a3a9b0"/> <!-- Frontvikter -->
    <path d="M 535 620 L 565 620 Q 610 620 610 665 L 610 765 Q 610 810 565 810 L 535 810 Q 490 810 490 765 L 490 665 Q 490 620 535 620 Z" fill="#5c5f68"/> <!-- Vänster framdäck -->
    <path d="M 540 660 L 560 660 Q 585 660 585 685 L 585 745 Q 585 770 560 770 L 540 770 Q 515 770 515 745 L 515 685 Q 515 660 540 660 Z" fill="#f2d06b"/> <!-- Vänster framfälg -->
    <path d="M 895 600 L 945 600 Q 1000 600 1000 655 L 1000 785 Q 1000 840 945 840 L 895 840 Q 840 840 840 785 L 840 655 Q 840 600 895 600 Z" fill="#5c5f68"/> <!-- Höger framdäck -->
    <path d="M 907 648 L 933 648 Q 968 648 968 683 L 968 757 Q 968 792 933 792 L 907 792 Q 872 792 872 757 L 872 683 Q 872 648 907 648 Z" fill="#f2d06b"/> <!-- Höger framfälg -->
    <path d="M 892 720 A 28 28 0 1 0 948 720 A 28 28 0 1 0 892 720 Z" fill="#e2655a"/> <!-- Höger framnav -->
    <path d="M 820 625 C 840 590 890 575 950 580 C 1000 585 1025 610 1025 645 L 995 645 C 995 625 970 605 940 605 C 890 605 855 620 840 645 Z" fill="#e2655a"/> <!-- Höger framstänkskärm -->
    <path d="M 260 480 C 260 420 300 395 350 405 L 350 435 C 315 430 290 445 290 480 Z" fill="#e2655a"/> <!-- Vänster stänkskärm bakdel -->
    <path d="M 388 545 L 492 545 Q 500 545 500 553 L 500 597 Q 500 605 492 605 L 388 605 Q 380 605 380 597 L 380 553 Q 380 545 388 545 Z" fill="#6f747c"/> <!-- Batterilåda och fotsteg -->
  </g>
  <g id="linjer" fill="none" stroke="#3a3a44" stroke-linecap="round" stroke-linejoin="round">
    <path d="M 100 120 A 50 50 0 1 0 200 120 A 50 50 0 1 0 100 120 Z" stroke-width="6"/>
    <path d="M 450 120 C 430 120 415 105 415 85 C 415 65 435 50 460 50 C 475 30 505 20 535 25 C 565 30 580 45 590 60 C 610 55 640 65 650 85 C 660 105 645 125 625 130 C 620 145 595 155 565 150 C 535 150 515 140 505 130 C 490 140 465 135 450 120 Z" stroke-width="6"/>
    <path d="M 880 140 C 860 140 840 125 840 105 C 840 85 860 70 885 70 C 895 50 925 35 955 40 C 985 45 1000 65 1005 80 C 1025 75 1055 85 1065 105 C 1075 125 1065 145 1045 150 C 1045 160 1020 175 990 170 C 960 170 940 165 930 155 C 915 165 890 160 880 140 Z" stroke-width="6"/>
    <path d="M 0 460 Q 95 447 190 450" stroke-width="6"/>
    <path d="M 980 430 Q 1090 440 1200 450" stroke-width="6"/>
    <path d="M 1065 440 L 1068 375 L 1098 375 L 1102 440 Z" stroke-width="5"/>
    <path d="M 1029 340 A 56 56 0 1 0 1141 340 A 56 56 0 1 0 1029 340 Z" stroke-width="6"/>
    <path d="M 0 580 Q 95 575 190 575" stroke-width="6"/>
    <path d="M 960 562 Q 1080 570 1200 580" stroke-width="6"/>
    <path d="M 0 770 Q 100 762 200 760" stroke-width="6"/>
    <path d="M 1030 752 Q 1110 758 1200 765" stroke-width="6"/>
    <path d="M 265 430 L 275 430 Q 350 430 350 505 L 350 625 Q 350 700 275 700 L 265 700 Q 190 700 190 625 L 190 505 Q 190 430 265 430 Z" stroke-width="7"/>
    <path d="M 270 475 L 275 475 Q 320 475 320 520 L 320 610 Q 320 655 275 655 L 270 655 Q 225 655 225 610 L 225 520 Q 225 475 270 475 Z" stroke-width="6"/>
    <path d="M 340 210 L 610 200 L 640 240 L 320 250 Z" stroke-width="7"/>
    <path d="M 468 172 L 502 172 Q 510 172 510 180 L 510 196 Q 510 204 502 204 L 468 204 Q 460 204 460 196 L 460 180 Q 460 172 468 172 Z" stroke-width="5"/>
    <path d="M 425 250 L 625 240 L 635 385 L 420 395 Z" stroke-width="6"/>
    <path d="M 330 255 L 415 252 L 410 395 L 320 390 Z" stroke-width="6"/>
    <path d="M 320 395 L 420 395 L 415 540 L 310 520 Z" stroke-width="7"/>
    <path d="M 405 370 L 405 200 L 390 195 L 390 155 L 420 155 L 420 195 L 415 200 L 415 370 Z" stroke-width="6"/>
    <path d="M 425 395 L 635 385 L 830 460 L 650 475 Z" stroke-width="7"/>
    <path d="M 420 395 L 650 475 L 635 585 L 415 540 Z" stroke-width="7"/>
    <path d="M 650 475 L 830 460 C 860 465 870 485 870 520 L 865 645 C 865 675 840 685 810 685 L 645 680 C 620 680 615 660 615 635 L 635 585 Z" stroke-width="7"/>
    <path d="M 644 505 A 26 26 0 1 0 696 505 A 26 26 0 1 0 644 505 Z" stroke-width="5"/>
    <path d="M 789 495 A 26 26 0 1 0 841 495 A 26 26 0 1 0 789 495 Z" stroke-width="5"/>
    <path d="M 630 680 L 840 680 Q 850 680 850 690 L 850 735 Q 850 745 840 745 L 630 745 Q 620 745 620 735 L 620 690 Q 620 680 630 680 Z" stroke-width="7"/>
    <path d="M 535 620 L 565 620 Q 610 620 610 665 L 610 765 Q 610 810 565 810 L 535 810 Q 490 810 490 765 L 490 665 Q 490 620 535 620 Z" stroke-width="7"/>
    <path d="M 540 660 L 560 660 Q 585 660 585 685 L 585 745 Q 585 770 560 770 L 540 770 Q 515 770 515 745 L 515 685 Q 515 660 540 660 Z" stroke-width="6"/>
    <path d="M 895 600 L 945 600 Q 1000 600 1000 655 L 1000 785 Q 1000 840 945 840 L 895 840 Q 840 840 840 785 L 840 655 Q 840 600 895 600 Z" stroke-width="8"/>
    <path d="M 907 648 L 933 648 Q 968 648 968 683 L 968 757 Q 968 792 933 792 L 907 792 Q 872 792 872 757 L 872 683 Q 872 648 907 648 Z" stroke-width="6"/>
    <path d="M 892 720 A 28 28 0 1 0 948 720 A 28 28 0 1 0 892 720 Z" stroke-width="5"/>
    <path d="M 820 625 C 840 590 890 575 950 580 C 1000 585 1025 610 1025 645 L 995 645 C 995 625 970 605 940 605 C 890 605 855 620 840 645 Z" stroke-width="6"/>
    <path d="M 260 480 C 260 420 300 395 350 405 L 350 435 C 315 430 290 445 290 480 Z" stroke-width="6"/>
    <path d="M 388 545 L 492 545 Q 500 545 500 553 L 500 597 Q 500 605 492 605 L 388 605 Q 380 605 380 597 L 380 553 Q 380 545 388 545 Z" stroke-width="6"/>
    <path d="M 212.0 120.0 L 232.0 120.0" stroke-width="3.5"/>
    <path d="M 200.2 156.4 L 216.3 168.2" stroke-width="3.5"/>
    <path d="M 169.2 179.0 L 175.3 198.0" stroke-width="3.5"/>
    <path d="M 130.8 179.0 L 124.7 198.0" stroke-width="3.5"/>
    <path d="M 99.8 156.4 L 83.7 168.2" stroke-width="3.5"/>
    <path d="M 88.0 120.0 L 68.0 120.0" stroke-width="3.5"/>
    <path d="M 99.8 83.6 L 83.7 71.8" stroke-width="3.5"/>
    <path d="M 130.8 61.0 L 124.7 42.0" stroke-width="3.5"/>
    <path d="M 169.2 61.0 L 175.3 42.0" stroke-width="3.5"/>
    <path d="M 200.2 83.6 L 216.3 71.8" stroke-width="3.5"/>
    <path d="M 80 830 L 70 805 M 80 830 L 82 798 M 80 830 L 94 808" stroke-width="3.5"/>
    <path d="M 1120 830 L 1110 805 M 1120 830 L 1122 798 M 1120 830 L 1134 808" stroke-width="3.5"/>
    <path d="M 535 345 L 535 390 M 505 345 C 505 325 565 325 565 345 C 565 360 505 360 505 345" stroke-width="3.5"/>
    <path d="M 480 450 L 470 525" stroke-width="3.5"/>
    <path d="M 500 450 L 490 525" stroke-width="3.5"/>
    <path d="M 520 450 L 510 525" stroke-width="3.5"/>
    <path d="M 540 450 L 530 525" stroke-width="3.5"/>
    <path d="M 560 450 L 550 525" stroke-width="3.5"/>
    <path d="M 580 450 L 570 525" stroke-width="3.5"/>
    <path d="M 670 530 L 820 522" stroke-width="3.5"/>
    <path d="M 670 552 L 820 544" stroke-width="3.5"/>
    <path d="M 670 574 L 820 566" stroke-width="3.5"/>
    <path d="M 670 596 L 820 588" stroke-width="3.5"/>
    <path d="M 670 618 L 820 610" stroke-width="3.5"/>
    <path d="M 670 640 L 820 632" stroke-width="3.5"/>
    <path d="M 680 690 L 680 735 M 735 690 L 735 735 M 790 690 L 790 735" stroke-width="3.5"/>
    <path d="M 996.0 720.0 L 967.5 730.8" stroke-width="4"/>
    <path d="M 981.5 788.2 L 954.2 770.5" stroke-width="4"/>
    <path d="M 943.5 830.3 L 927.8 791.0" stroke-width="4"/>
    <path d="M 896.5 830.3 L 898.5 784.4" stroke-width="4"/>
    <path d="M 858.5 788.2 L 877.4 753.1" stroke-width="4"/>
    <path d="M 844.0 720.0 L 872.5 709.2" stroke-width="4"/>
    <path d="M 858.5 651.8 L 885.8 669.5" stroke-width="4"/>
    <path d="M 896.5 609.7 L 912.2 649.0" stroke-width="4"/>
    <path d="M 943.5 609.7 L 941.5 655.6" stroke-width="4"/>
    <path d="M 981.5 651.8 L 962.6 686.9" stroke-width="4"/>
    <path d="M 390 575 L 485 575" stroke-width="3.5"/>
  </g>
</svg>